<?xml version="1.0" encoding="utf-8"?>
<!-- Generator: Adobe Illustrator 24.0.3, SVG Export Plug-In . SVG Version: 6.00 Build 0)  -->
<svg version="1.1" id="Layer_1" xmlns="http://www.w3.org/2000/svg" xmlns:xlink="http://www.w3.org/1999/xlink" x="0px" y="0px"
	 viewBox="0 0 941.8 307.2" style="enable-background:new 0 0 941.8 307.2;" xml:space="preserve">
<style type="text/css">
	.st0{fill:#2C4C42;stroke:#000000;stroke-width:4;stroke-miterlimit:10;}
	.st1{fill:#213A33;stroke:#000000;stroke-width:4;stroke-miterlimit:10;}
	.st2{fill:#FF2B38;stroke:#000000;stroke-width:4;stroke-miterlimit:10;}
	.st3{opacity:0.15;stroke:#000000;stroke-width:4;stroke-miterlimit:10;enable-background:new    ;}
	.st4{fill:#213A33;}
	.st5{fill:url(#SVGID_1_);stroke:#000000;stroke-width:4;stroke-miterlimit:10;}
	.st6{fill:#FF2B38;}
</style>
<title>sprite</title>
<g>
	<ellipse class="st0" cx="156.4" cy="129.5" rx="154.4" ry="116.5"/>
	<ellipse class="st1" cx="156.3" cy="127.5" rx="142.5" ry="107.5"/>
	<path class="st2" d="M252.8,75h-36.6c-16.8-10-38.2-16-61.4-16s-44.6,6-61.4,16H56.8v45l0,0c0,0.5,0,1,0,1.5
		c0,40,43.9,72.5,98,72.5s98-32.5,98-72.5c0-0.5,0-1,0-1.5l0,0L252.8,75z"/>
	<path class="st3" d="M252.8,75h-36.6c-16.8-10-38.2-16-61.4-16s-44.6,6-61.4,16H56.8v45l0,0c0,0.5,0,1,0,1.5
		c0,40,43.9,72.5,98,72.5s98-32.5,98-72.5c0-0.5,0-1,0-1.5l0,0L252.8,75z"/>
	<ellipse class="st2" cx="154.8" cy="74.5" rx="98" ry="72.5"/>
	<path class="st4" d="M108.4,272.1l-1.8,34.1h-8.9c-6.9-7.3-13.7-14.8-20.5-22.4l-2,22.4h-9.7l3.3-34.1h10.3
		c7.2,8.3,10.9,12.5,18.5,20.8c0.5-8.3,0.8-12.5,1.3-20.8H108.4z"/>
	<path class="st4" d="M113.5,289.1c0.6-11.8,11.9-18.1,22.6-18.1s21.8,6.3,21.8,18.1c0,12.2-12,18.1-22.6,18.1
		S112.8,301.3,113.5,289.1z M147.8,289.1c0-6.4-4.5-10.1-11.9-10.1s-12.1,3.6-12.3,10.1s4.3,10.1,11.9,10.1
		C143,299.2,147.7,295.5,147.8,289.1z"/>
	<path class="st4" d="M202.8,284c0.4,7.9-5.6,11.9-15,11.9H174l0.2,10.2h-10.1l-0.3-34.1H187C196.1,272.1,202.4,276.1,202.8,284z
		 M192.8,284.2c-0.1-3.5-2.7-4.6-6.4-4.6h-12.8c0.1,3.6,0.1,5.5,0.2,9.1h12.9C190.4,288.7,192.9,287.6,192.8,284.2L192.8,284.2z"/>
	<path class="st4" d="M245.6,298.5c0.3,3,0.4,4.6,0.7,7.6h-37c-0.7-11.3-1.3-22.7-2-34.1h35.1l0.7,7.6h-25.8l0.4,5.6h21.4l0.7,7.2
		h-21.5c0.2,2.4,0.2,3.6,0.4,6L245.6,298.5z"/>
</g>
<g>
	<ellipse class="st0" cx="470.9" cy="129.5" rx="154.4" ry="116.5"/>
	<ellipse class="st1" cx="470.8" cy="127.5" rx="142.5" ry="107.5"/>
	<path class="st2" d="M567.3,75h-36.6c-16.8-10-38.2-16-61.4-16s-44.6,6-61.4,16h-36.6v45l0,0c0,0.5,0,1,0,1.5
		c0,40,43.9,72.5,98,72.5s98-32.5,98-72.5c0-0.5,0-1,0-1.5l0,0V75z"/>
	<path class="st3" d="M567.3,75h-36.6c-16.8-10-38.2-16-61.4-16s-44.6,6-61.4,16h-36.6v45l0,0c0,0.5,0,1,0,1.5
		c0,40,43.9,72.5,98,72.5s98-32.5,98-72.5c0-0.5,0-1,0-1.5l0,0V75z"/>
	<ellipse class="st2" cx="469.3" cy="76.5" rx="98" ry="72.5"/>
	<path class="st4" d="M422.9,272.1l-1.8,34.1h-8.9c-6.9-7.3-13.7-14.8-20.5-22.4l-2,22.4H380l3.3-34.1h10.3
		c7.2,8.3,10.9,12.5,18.5,20.8c0.5-8.3,0.8-12.5,1.3-20.8H422.9z"/>
	<path class="st4" d="M428,289.1c0.6-11.8,11.9-18.1,22.6-18.1s21.8,6.3,21.8,18.1c0,12.2-12,18.1-22.7,18.1
		C439.1,307.3,427.3,301.3,428,289.1z M462.3,289.1c0-6.4-4.5-10.1-11.9-10.1c-7.4,0-12.1,3.6-12.3,10.1
		c-0.2,6.4,4.3,10.1,11.9,10.1S462.2,295.5,462.3,289.1z"/>
	<path class="st4" d="M517.3,284c0.4,7.9-5.6,11.9-15,11.9h-13.8l0.2,10.2h-10.1l-0.3-34.1h23.2C510.6,272.1,516.9,276.1,517.3,284z
		 M507.3,284.2c-0.2-3.5-2.7-4.6-6.3-4.6h-12.8c0.1,3.6,0.1,5.5,0.2,9.1h12.9C504.9,288.7,507.4,287.6,507.3,284.2L507.3,284.2z"/>
	<path class="st4" d="M560,298.5c0.3,3,0.4,4.6,0.7,7.6h-37c-0.7-11.3-1.3-22.7-2-34.1h35.1c0.3,3,0.4,4.6,0.7,7.6h-25.8
		c0.2,2.2,0.2,3.4,0.4,5.6h21.4l0.7,7.2h-21.5c0.2,2.4,0.2,3.6,0.4,6L560,298.5z"/>
</g>
<g>
	<ellipse class="st0" cx="785.4" cy="129.5" rx="154.4" ry="116.5"/>
	
		<radialGradient id="SVGID_1_" cx="785.31" cy="157.0222" r="126.2215" gradientTransform="matrix(1 0 0 -0.9 0 268.85)" gradientUnits="userSpaceOnUse">
		<stop  offset="0" style="stop-color:#CCE0F4"/>
		<stop  offset="5.000000e-02" style="stop-color:#C3DCF2"/>
		<stop  offset="0.15" style="stop-color:#A9D2EE"/>
		<stop  offset="0.26" style="stop-color:#80C2E7"/>
		<stop  offset="0.4" style="stop-color:#47ACDE"/>
		<stop  offset="0.48" style="stop-color:#1E9CD7"/>
		<stop  offset="0.82" style="stop-color:#0075BE"/>
		<stop  offset="0.99" style="stop-color:#005B97"/>
	</radialGradient>
	<ellipse class="st5" cx="785.3" cy="127.5" rx="142.5" ry="107.5"/>
	<path class="st2" d="M881.8,95l-36.6-20c-16.8-10-38.2-16-61.4-16s-44.6,6-61.4,16l-36.6,20v25l0,0c0,0.5,0,1,0,1.5
		c0,40,43.9,72.5,98,72.5s98-32.5,98-72.5c0-0.5,0-1,0-1.5l0,0V95z"/>
	<path class="st3" d="M881.8,95l-36.6-20c-16.8-10-38.2-16-61.4-16s-44.6,6-61.4,16l-36.6,20v25l0,0c0,0.5,0,1,0,1.5
		c0,40,43.9,72.5,98,72.5s98-32.5,98-72.5c0-0.5,0-1,0-1.5l0,0V95z"/>
	<ellipse class="st2" cx="783.8" cy="96.5" rx="98" ry="72.5"/>
	<path class="st4" d="M737.4,272.1l-1.8,34.1h-8.9c-6.9-7.3-13.7-14.8-20.5-22.4l-2,22.4h-9.8l3.3-34.1h10.3
		c7.2,8.3,10.9,12.5,18.5,20.8c0.5-8.3,0.8-12.5,1.3-20.8H737.4z"/>
	<path class="st4" d="M742.5,289.1c0.6-11.8,11.9-18.1,22.6-18.1s21.8,6.3,21.8,18.1c0,12.2-12,18.1-22.7,18.1
		S741.8,301.3,742.5,289.1z M776.8,289.1c0-6.4-4.5-10.1-11.9-10.1s-12.1,3.6-12.3,10.1s4.3,10.1,11.9,10.1S776.7,295.5,776.8,289.1
		z"/>
	<path class="st4" d="M831.8,284c0.4,7.9-5.6,11.9-15,11.9H803l0.2,10.2h-10.1l-0.3-34.1H816C825.1,272.1,831.4,276.1,831.8,284z
		 M821.8,284.2c-0.2-3.5-2.7-4.6-6.3-4.6h-12.8c0.1,3.6,0.1,5.5,0.2,9.1h12.9C819.4,288.7,821.9,287.6,821.8,284.2L821.8,284.2z"/>
	<path class="st4" d="M874.5,298.5l0.8,7.6h-37c-0.7-11.3-1.3-22.7-2-34.1h35.1c0.3,3,0.4,4.6,0.7,7.6h-25.8l0.4,5.6h21.4
		c0.3,2.9,0.4,4.4,0.7,7.2h-21.5c0.2,2.4,0.2,3.6,0.4,6L874.5,298.5z"/>
</g>
<rect x="682.4" y="285.2" class="st6" width="205.8" height="7.2"/>
</svg>
